<?xml version="1.0" encoding="utf-8"?>
<!-- Generator: Adobe Illustrator 16.0.0, SVG Export Plug-In . SVG Version: 6.00 Build 0)  -->
<!DOCTYPE svg PUBLIC "-//W3C//DTD SVG 1.1//EN" "http://www.w3.org/Graphics/SVG/1.1/DTD/svg11.dtd">
<svg version="1.1" id="Capa_1" xmlns="http://www.w3.org/2000/svg" xmlns:xlink="http://www.w3.org/1999/xlink" x="0px" y="0px"
	 width="100px" height="100px" viewBox="0 0 100 100" enable-background="new 0 0 100 100" xml:space="preserve">
<filter  id="AI_DesenfoqueGaussiano_4">
	<feGaussianBlur  stdDeviation="2"></feGaussianBlur>
</filter>
<g>
	<linearGradient id="SVGID_1_" gradientUnits="userSpaceOnUse" x1="64.4375" y1="77.4521" x2="32.4077" y2="21.9749">
		<stop  offset="0.0056" style="stop-color:#005B95"/>
		<stop  offset="0.1348" style="stop-color:#0075BC"/>
		<stop  offset="0.4326" style="stop-color:#1E9AD5"/>
		<stop  offset="0.5312" style="stop-color:#45A9DC"/>
		<stop  offset="0.6908" style="stop-color:#7EC0E5"/>
		<stop  offset="0.8279" style="stop-color:#A7D0EC"/>
		<stop  offset="0.9354" style="stop-color:#C1DAF0"/>
		<stop  offset="1" style="stop-color:#CADEF2"/>
	</linearGradient>
	<path fill="url(#SVGID_1_)" d="M90.094,47.978c-0.45,0-0.886,0.059-1.306,0.158c0.157-0.642,0.242-1.311,0.242-2.001
		c0-4.627-3.752-8.379-8.38-8.379c-0.714,0-1.407,0.09-2.069,0.258c-1.332-6.084-6.75-10.641-13.234-10.641
		c-0.137,0-0.271,0.006-0.406,0.01c-2.398-5.104-7.583-8.639-13.596-8.639c-5.522,0-10.346,2.983-12.954,7.424
		c-1.871-1.292-4.138-2.051-6.584-2.051c-6.113,0-11.118,4.731-11.562,10.731c-2.766,0.83-4.847,3.241-5.193,6.184
		c-0.701-0.175-1.434-0.27-2.188-0.27c-4.956,0-8.974,4.018-8.974,8.974c0,4.956,4.018,8.973,8.974,8.973
		c1.312,0,2.555-0.283,3.678-0.789c1.324,5.812,5.921,10.377,11.752,11.65c2.257,5.74,7.844,9.804,14.384,9.804
		c4.132,0,7.883-1.626,10.656-4.267c2.239,1.263,4.824,1.987,7.579,1.987c6.517,0,12.087-4.036,14.359-9.741
		c0.584,0.099,1.184,0.154,1.797,0.154c5.263,0,9.63-3.827,10.476-8.85c0.767,0.389,1.631,0.612,2.549,0.612
		c3.119,0,5.647-2.528,5.647-5.646S93.213,47.978,90.094,47.978z"/>
	<g opacity="0.6" filter="url(#AI_DesenfoqueGaussiano_4)">
		<linearGradient id="SVGID_2_" gradientUnits="userSpaceOnUse" x1="49.9312" y1="67.1699" x2="49.9312" y2="32.0166">
			<stop  offset="0" style="stop-color:#16CCFF"/>
			<stop  offset="0.9944" style="stop-color:#0085EB"/>
		</linearGradient>
		<path fill="url(#SVGID_2_)" d="M72.985,38.018c-0.024-0.04-0.051-0.078-0.07-0.118c-0.194-0.398-0.6-0.663-1.044-0.64
			c-0.14,0.002-0.273,0.032-0.397,0.081l0.046-3.255c0.003-0.184-0.006-0.37-0.019-0.597c-0.006-0.097-0.011-0.204-0.017-0.324
			c-0.018-0.419-0.265-0.794-0.642-0.977c-0.378-0.183-0.825-0.143-1.165,0.103c-2.893,2.093-5.56,3.826-8.916,3.826
			c-3.116-0.004-6.175-0.841-9.622-2.633c-0.349-0.181-0.764-0.171-1.102,0.028c-0.024,0.014-0.046,0.03-0.069,0.045
			c-0.045-0.038-0.093-0.073-0.146-0.104c-0.337-0.198-0.754-0.208-1.102-0.028c-3.448,1.792-6.505,2.629-9.635,2.633
			c-3.343,0-6.01-1.732-8.903-3.826c-0.339-0.246-0.787-0.285-1.164-0.102c-0.378,0.182-0.625,0.558-0.643,0.978
			c-0.005,0.121-0.011,0.228-0.016,0.325c-0.012,0.228-0.022,0.415-0.02,0.599l0.047,3.253c-0.125-0.05-0.258-0.08-0.397-0.082
			c-0.449-0.018-0.85,0.241-1.044,0.638c-0.02,0.04-0.047,0.079-0.071,0.118c-0.146,0.235-0.369,0.591-0.369,1.075
			c-0.003,4.136,0.001,8.272,0.004,12.409c0.003,4.055,0.007,8.109,0.005,12.164c-0.002,1.004,0.489,1.695,1.458,2.055
			c2.594,0.963,5.307,1.449,8.063,1.45c0,0,0,0,0,0c0.47,0,0.951-0.015,1.427-0.042c4.974-0.293,7.541-0.771,11.441-2.139
			c0.544-0.191,0.861-0.76,0.736-1.322c-0.029-0.137-0.085-0.261-0.156-0.372c0.154-0.06,0.289-0.128,0.404-0.206
			c0.133,0.104,0.293,0.191,0.484,0.266c-0.071,0.109-0.126,0.234-0.155,0.369c-0.125,0.563,0.19,1.131,0.735,1.322
			c3.9,1.367,6.467,1.848,11.44,2.139c0.478,0.029,0.958,0.043,1.43,0.043c2.755,0,5.468-0.488,8.062-1.45
			c0.969-0.359,1.458-1.05,1.458-2.054c-0.003-4.068,0-8.137,0.005-12.204c0.003-4.123,0.007-8.246,0.004-12.372
			C73.354,38.608,73.132,38.253,72.985,38.018z"/>
	</g>
	<linearGradient id="SVGID_3_" gradientUnits="userSpaceOnUse" x1="51.332" y1="52.2148" x2="72.2168" y2="52.2148">
		<stop  offset="0.8652" style="stop-color:#0075BC"/>
		<stop  offset="0.9944" style="stop-color:#005B95"/>
	</linearGradient>
	<path fill="url(#SVGID_3_)" d="M58.652,64.646c-2.408-0.254-4.817-0.483-7.32-0.732c3.891,1.364,6.412,1.8,11.131,2.077
		c3.112,0.184,6.11-0.258,9.028-1.34c0.5-0.186,0.715-0.426,0.714-0.984c-0.005-8.191,0.015-16.381,0.011-24.572
		c-0.001-0.231-0.212-0.463-0.325-0.694c-0.108,0.243-0.302,0.48-0.311,0.726c-0.047,1.327-0.047,2.654-0.063,3.981
		c-0.072,5.697-0.146,11.394-0.219,17.09c-0.005,0.409,0.022,0.8-0.434,1.06C67.075,63.409,63.171,65.121,58.652,64.646z"/>
	<path fill="#FFFFFF" d="M51.424,62.404c1.458,0.287,2.921,0.555,4.382,0.832c4.831,0.92,9.309-0.039,13.514-2.512
		c0.49-0.289,0.7-0.607,0.708-1.188c0.104-8.489,0.232-16.979,0.353-25.468c0.004-0.243-0.018-0.485-0.034-0.855
		c-2.945,2.132-5.852,4.048-9.586,4.042c-3.592-0.005-6.881-1.064-10.146-2.761c-0.018,0.529-0.036,0.892-0.039,1.256
		c-0.012,1.922-0.02,3.844-0.028,5.767c-0.034,6.568-0.068,13.136-0.101,19.704C50.441,62.199,50.441,62.211,51.424,62.404z"/>
	<linearGradient id="SVGID_4_" gradientUnits="userSpaceOnUse" x1="27.6455" y1="52.1562" x2="48.5303" y2="52.1562">
		<stop  offset="0" style="stop-color:#1E9AD5"/>
		<stop  offset="0.8652" style="stop-color:#0075BC"/>
		<stop  offset="0.9944" style="stop-color:#005B95"/>
	</linearGradient>
	<path fill="url(#SVGID_4_)" d="M27.646,39.036c-0.005,8.191,0.014,16.382,0.01,24.574c-0.001,0.557,0.214,0.799,0.714,0.984
		c2.917,1.082,5.916,1.521,9.028,1.338c4.718-0.276,7.24-0.713,11.132-2.076c-2.504,0.25-4.914,0.479-7.321,0.732
		c-4.519,0.476-8.423-1.236-12.211-3.391c-0.457-0.26-0.429-0.649-0.435-1.059c-0.073-5.697-0.146-11.393-0.218-17.09
		c-0.017-1.328-0.017-2.655-0.063-3.98c-0.009-0.246-0.203-0.484-0.311-0.727C27.858,38.573,27.646,38.805,27.646,39.036z"/>
	<path fill="#FFFFFF" d="M30.543,60.667c4.204,2.474,8.681,3.433,13.513,2.511c1.46-0.277,2.923-0.543,4.382-0.831
		c0.982-0.192,0.982-0.205,0.978-1.183c-0.032-6.568-0.065-13.136-0.099-19.704c-0.01-1.923-0.018-3.845-0.031-5.767
		c-0.002-0.364-0.021-0.727-0.037-1.256c-3.266,1.697-6.555,2.756-10.146,2.762c-3.734,0.004-6.641-1.912-9.586-4.043
		c-0.016,0.371-0.038,0.613-0.034,0.855c0.12,8.489,0.249,16.979,0.353,25.468C29.842,60.06,30.051,60.377,30.543,60.667z"/>
	<linearGradient id="SVGID_5_" gradientUnits="userSpaceOnUse" x1="30.6138" y1="48.7734" x2="48.7173" y2="48.7734">
		<stop  offset="0" style="stop-color:#16CCFF;stop-opacity:0"/>
		<stop  offset="0.7546" style="stop-color:#038BEC;stop-opacity:0.274"/>
		<stop  offset="0.9944" style="stop-color:#0085EB;stop-opacity:0.5"/>
	</linearGradient>
	<path fill="url(#SVGID_5_)" d="M31.578,59.969c3.818,2.246,7.884,3.117,12.272,2.281c1.326-0.252,2.654-0.494,3.979-0.756
		c0.892-0.176,0.893-0.187,0.888-1.074c-0.03-5.965-0.06-11.929-0.09-17.894c-0.009-1.746-0.016-3.491-0.027-5.237
		c-0.001-0.331-0.02-0.661-0.035-1.141c-2.965,1.542-5.953,2.504-9.214,2.508c-3.391,0.004-6.03-1.736-8.706-3.672
		c-0.014,0.336-0.035,0.557-0.031,0.777c0.109,7.709,0.225,15.42,0.321,23.129C30.941,59.417,31.132,59.707,31.578,59.969z"/>
	<g>
		<path fill="#29A9E0" d="M31.138,37.715c2.483,1.716,4.935,3.26,8.083,3.255c3.028-0.004,5.801-0.857,8.554-2.224
			c0.009,0.251,0.018,0.452,0.024,0.638c0.003-0.002,0.005-0.003,0.008-0.003c-0.003-0.277-0.018-0.559-0.032-0.96
			c-2.752,1.367-5.525,2.22-8.554,2.224c-3.148,0.004-5.599-1.54-8.083-3.256c-0.013,0.298-0.032,0.493-0.029,0.689
			c0.001,0.051,0.001,0.102,0.002,0.154C31.117,38.087,31.129,37.927,31.138,37.715z"/>
		<path fill="#29A9E0" d="M31.138,39.017c2.483,1.717,4.935,3.26,8.083,3.256c3.028-0.004,5.801-0.858,8.554-2.224
			c0.009,0.25,0.018,0.452,0.024,0.637c0.003-0.001,0.005-0.002,0.008-0.003c-0.003-0.276-0.018-0.559-0.032-0.96
			c-2.752,1.367-5.525,2.22-8.554,2.224c-3.148,0.004-5.599-1.539-8.083-3.255c-0.013,0.298-0.032,0.493-0.029,0.689
			c0.001,0.051,0.001,0.103,0.002,0.154C31.117,39.39,31.129,39.23,31.138,39.017z"/>
		<path fill="#29A9E0" d="M31.138,40.319c2.483,1.717,4.935,3.261,8.083,3.256c3.028-0.004,5.801-0.858,8.554-2.224
			c0.009,0.25,0.018,0.452,0.024,0.637c0.003-0.001,0.005-0.002,0.008-0.003c-0.003-0.277-0.018-0.559-0.032-0.959
			c-2.752,1.366-5.525,2.22-8.554,2.224c-3.148,0.004-5.599-1.539-8.083-3.256c-0.013,0.298-0.032,0.494-0.029,0.689
			c0.001,0.051,0.001,0.103,0.002,0.154C31.117,40.692,31.129,40.533,31.138,40.319z"/>
		<path fill="#29A9E0" d="M31.138,41.622c2.483,1.718,4.935,3.261,8.083,3.256c3.028-0.004,5.801-0.857,8.554-2.224
			c0.009,0.25,0.018,0.452,0.024,0.637c0.003-0.001,0.005-0.002,0.008-0.003c-0.003-0.277-0.018-0.559-0.032-0.959
			c-2.752,1.366-5.525,2.22-8.554,2.224c-3.148,0.004-5.599-1.539-8.083-3.256c-0.013,0.298-0.032,0.494-0.029,0.689
			c0.001,0.051,0.001,0.102,0.002,0.154C31.117,41.995,31.129,41.835,31.138,41.622z"/>
		<path fill="#29A9E0" d="M31.138,42.925c2.483,1.717,4.935,3.26,8.083,3.256c3.028-0.004,5.801-0.858,8.554-2.224
			c0.009,0.25,0.018,0.451,0.024,0.637c0.003-0.001,0.005-0.002,0.008-0.004c-0.003-0.276-0.018-0.559-0.032-0.959
			c-2.752,1.366-5.525,2.22-8.554,2.223c-3.148,0.004-5.599-1.539-8.083-3.256c-0.013,0.299-0.032,0.494-0.029,0.689
			c0.001,0.051,0.001,0.103,0.002,0.155C31.117,43.297,31.129,43.137,31.138,42.925z"/>
		<path fill="#29A9E0" d="M31.138,44.227c2.483,1.717,4.935,3.26,8.083,3.256c3.028-0.004,5.801-0.858,8.554-2.224
			c0.009,0.25,0.018,0.452,0.024,0.637c0.003-0.001,0.005-0.002,0.008-0.003c-0.003-0.277-0.018-0.559-0.032-0.959
			c-2.752,1.366-5.525,2.219-8.554,2.224c-3.148,0.004-5.599-1.539-8.083-3.256c-0.013,0.298-0.032,0.493-0.029,0.688
			c0.001,0.051,0.001,0.103,0.002,0.155C31.117,44.6,31.129,44.44,31.138,44.227z"/>
		<path fill="#29A9E0" d="M31.138,45.529c2.483,1.717,4.935,3.261,8.083,3.256c3.028-0.004,5.801-0.857,8.554-2.224
			c0.009,0.25,0.018,0.452,0.024,0.637c0.003-0.001,0.005-0.002,0.008-0.003c-0.003-0.276-0.018-0.558-0.032-0.959
			c-2.752,1.367-5.525,2.22-8.554,2.224c-3.148,0.004-5.599-1.539-8.083-3.256c-0.013,0.298-0.032,0.494-0.029,0.689
			c0.001,0.051,0.001,0.103,0.002,0.154C31.117,45.902,31.129,45.743,31.138,45.529z"/>
		<path fill="#29A9E0" d="M31.138,46.832c2.483,1.717,4.935,3.26,8.083,3.256c3.028-0.004,5.801-0.857,8.554-2.224
			c0.009,0.25,0.018,0.452,0.024,0.637c0.003-0.001,0.005-0.002,0.008-0.004c-0.003-0.276-0.018-0.558-0.032-0.959
			c-2.752,1.367-5.525,2.22-8.554,2.224c-3.148,0.004-5.599-1.539-8.083-3.256c-0.013,0.299-0.032,0.494-0.029,0.689
			c0.001,0.052,0.001,0.103,0.002,0.155C31.117,47.205,31.129,47.045,31.138,46.832z"/>
		<path fill="#29A9E0" d="M31.138,48.135c2.483,1.717,4.935,3.26,8.083,3.256c3.028-0.004,5.801-0.857,8.554-2.224
			c0.009,0.25,0.018,0.452,0.024,0.637c0.003-0.001,0.005-0.002,0.008-0.004c-0.003-0.276-0.018-0.559-0.032-0.959
			c-2.752,1.366-5.525,2.219-8.554,2.224c-3.148,0.004-5.599-1.54-8.083-3.256c-0.013,0.298-0.032,0.494-0.029,0.688
			c0.001,0.052,0.001,0.103,0.002,0.155C31.117,48.507,31.129,48.347,31.138,48.135z"/>
		<path fill="#29A9E0" d="M31.138,49.438c2.483,1.717,4.935,3.26,8.083,3.256c3.028-0.004,5.801-0.857,8.554-2.224
			c0.009,0.25,0.018,0.451,0.024,0.637c0.003-0.001,0.005-0.003,0.008-0.003c-0.003-0.277-0.018-0.56-0.032-0.959
			c-2.752,1.365-5.525,2.219-8.554,2.223c-3.148,0.005-5.599-1.539-8.083-3.256c-0.013,0.299-0.032,0.494-0.029,0.689
			c0.001,0.051,0.001,0.103,0.002,0.155C31.117,49.81,31.129,49.65,31.138,49.438z"/>
		<path fill="#29A9E0" d="M31.138,50.74c2.483,1.716,4.935,3.26,8.083,3.256c3.028-0.005,5.801-0.857,8.554-2.225
			c0.009,0.251,0.018,0.452,0.024,0.637c0.003,0,0.005-0.001,0.008-0.002c-0.003-0.277-0.018-0.559-0.032-0.959
			c-2.752,1.365-5.525,2.219-8.554,2.223c-3.148,0.004-5.599-1.539-8.083-3.256c-0.013,0.299-0.032,0.494-0.029,0.689
			c0.001,0.051,0.001,0.103,0.002,0.154C31.117,51.112,31.129,50.953,31.138,50.74z"/>
		<path fill="#29A9E0" d="M31.138,52.043c2.483,1.716,4.935,3.26,8.083,3.255c3.028-0.004,5.801-0.856,8.554-2.224
			c0.009,0.251,0.018,0.452,0.024,0.637c0.003-0.001,0.005-0.002,0.008-0.003c-0.003-0.276-0.018-0.559-0.032-0.959
			c-2.752,1.366-5.525,2.22-8.554,2.224c-3.148,0.004-5.599-1.539-8.083-3.256c-0.013,0.298-0.032,0.494-0.029,0.689
			c0.001,0.051,0.001,0.102,0.002,0.154C31.117,52.415,31.129,52.255,31.138,52.043z"/>
		<path fill="#29A9E0" d="M31.138,53.345c2.483,1.717,4.935,3.261,8.083,3.256c3.028-0.004,5.801-0.856,8.554-2.224
			c0.009,0.25,0.018,0.451,0.024,0.637c0.003,0,0.005-0.002,0.008-0.004c-0.003-0.275-0.018-0.559-0.032-0.959
			c-2.752,1.367-5.525,2.221-8.554,2.225c-3.148,0.004-5.599-1.539-8.083-3.256c-0.013,0.298-0.032,0.493-0.029,0.688
			c0.001,0.052,0.001,0.104,0.002,0.155C31.117,53.717,31.129,53.557,31.138,53.345z"/>
		<path fill="#29A9E0" d="M31.138,54.646c2.483,1.718,4.935,3.262,8.083,3.258c3.028-0.006,5.801-0.858,8.554-2.225
			c0.009,0.25,0.018,0.451,0.024,0.637c0.003-0.001,0.005-0.002,0.008-0.004c-0.003-0.275-0.018-0.559-0.032-0.958
			c-2.752,1.366-5.525,2.219-8.554,2.224c-3.148,0.004-5.599-1.539-8.083-3.256c-0.013,0.297-0.032,0.493-0.029,0.688
			c0.001,0.053,0.001,0.104,0.002,0.155C31.117,55.02,31.129,54.86,31.138,54.646z"/>
		<path fill="#29A9E0" d="M31.138,55.949c2.483,1.717,4.935,3.26,8.083,3.256c3.028-0.004,5.801-0.856,8.554-2.223
			c0.009,0.25,0.018,0.451,0.024,0.637c0.003-0.002,0.005-0.002,0.008-0.004c-0.003-0.275-0.018-0.559-0.032-0.959
			c-2.752,1.366-5.525,2.219-8.554,2.225c-3.148,0.004-5.599-1.54-8.083-3.257c-0.013,0.298-0.032,0.494-0.029,0.688
			c0.001,0.053,0.001,0.104,0.002,0.155C31.117,56.322,31.129,56.162,31.138,55.949z"/>
		<path fill="#29A9E0" d="M31.138,57.252c2.483,1.717,4.935,3.26,8.083,3.256c3.028-0.004,5.801-0.857,8.554-2.223
			c0.009,0.25,0.018,0.451,0.024,0.637c0.003-0.002,0.005-0.002,0.008-0.004c-0.003-0.276-0.018-0.559-0.032-0.959
			c-2.752,1.366-5.525,2.22-8.554,2.224c-3.148,0.005-5.599-1.539-8.083-3.257c-0.013,0.299-0.032,0.495-0.029,0.689
			c0.001,0.051,0.001,0.104,0.002,0.155C31.117,57.625,31.129,57.465,31.138,57.252z"/>
		<path fill="#29A9E0" d="M31.138,58.555c2.483,1.717,4.935,3.26,8.083,3.256c3.028-0.004,5.801-0.857,8.554-2.224
			c0.009,0.251,0.018,0.452,0.024,0.638c0.003-0.002,0.005-0.003,0.008-0.004c-0.003-0.277-0.018-0.559-0.032-0.959
			c-2.752,1.365-5.525,2.219-8.554,2.224c-3.148,0.004-5.599-1.54-8.083-3.257c-0.013,0.299-0.032,0.494-0.029,0.689
			c0.001,0.051,0.001,0.103,0.002,0.154C31.117,58.928,31.129,58.768,31.138,58.555z"/>
	</g>
	<g>
		<linearGradient id="SVGID_6_" gradientUnits="userSpaceOnUse" x1="5.9302" y1="36.8496" x2="93.8184" y2="36.8496">
			<stop  offset="0" style="stop-color:#F8F8F8"/>
			<stop  offset="0.0676" style="stop-color:#EFF4F6"/>
			<stop  offset="0.18" style="stop-color:#D5E8F2"/>
			<stop  offset="0.3233" style="stop-color:#ACD6EA"/>
			<stop  offset="0.4904" style="stop-color:#73BDE0"/>
			<stop  offset="0.5674" style="stop-color:#56B0DB"/>
			<stop  offset="0.8652" style="stop-color:#308BC2"/>
			<stop  offset="0.9944" style="stop-color:#276E9B"/>
		</linearGradient>
		<path fill="url(#SVGID_6_)" d="M89.019,47.27c-0.205-0.023-0.412-0.039-0.624-0.039c-0.289,0-0.571,0.027-0.847,0.072
			c0.096-0.491,0.15-0.997,0.15-1.517c0-0.121-0.004-0.241-0.01-0.36c-0.151-3.438-2.458-6.313-5.604-7.311
			c-0.769-0.243-1.586-0.376-2.435-0.376c-0.686,0-1.352,0.087-1.987,0.249c-0.215-0.979-0.541-1.914-0.961-2.796
			c-1.278-2.681-3.443-4.854-6.117-6.141c-1.704-0.821-3.614-1.282-5.633-1.282c-0.13,0-0.26,0.005-0.39,0.009
			c-0.315-0.67-0.683-1.312-1.093-1.922c-1.28-1.899-2.999-3.479-5.013-4.59c-2.062-1.137-4.431-1.785-6.952-1.785
			c-5.304,0-9.936,2.865-12.441,7.13c-1.796-1.242-3.975-1.971-6.323-1.971c-5.871,0-10.678,4.544-11.104,10.307
			c-2.657,0.797-4.654,3.112-4.987,5.938c-0.673-0.168-1.377-0.259-2.102-0.259c-3.354,0-6.259,1.919-7.683,4.717
			C6.268,46.515,5.93,47.84,5.93,49.245c0,0.676,0.08,1.333,0.228,1.965c-0.002-0.069-0.005-0.138-0.005-0.206
			c0-1.299,0.29-2.53,0.807-3.633c1.368-2.919,4.331-4.941,7.767-4.941c0.722,0,1.422,0.09,2.091,0.258
			c0.331-2.812,2.319-5.116,4.962-5.909c0.424-5.733,5.207-10.253,11.048-10.253c2.337,0,4.503,0.725,6.291,1.959
			c2.492-4.243,7.101-7.094,12.377-7.094c5.746,0,10.7,3.378,12.992,8.255c0.129-0.004,0.258-0.01,0.388-0.01
			c3.231,0,6.184,1.186,8.451,3.144c0.821,0.709,1.553,1.519,2.175,2.411c0.954,1.369,1.651,2.929,2.021,4.613
			c0.633-0.16,1.295-0.247,1.979-0.247c1.387,0,2.691,0.353,3.828,0.974c1.765,0.963,3.125,2.57,3.769,4.505
			c0.238,0.719,0.374,1.483,0.398,2.275c-0.107,0.018-0.213,0.04-0.319,0.064c-0.01,0.61-0.087,1.205-0.227,1.775
			c0.401-0.096,0.818-0.152,1.248-0.152c0.407,0,0.803,0.05,1.184,0.134c2.354,0.527,4.122,2.592,4.204,5.085
			c0.148-0.495,0.231-1.02,0.231-1.564C93.818,49.87,91.719,47.58,89.019,47.27z"/>
	</g>
	<g opacity="0.7" filter="url(#AI_DesenfoqueGaussiano_4)">
		
			<linearGradient id="SVGID_7_" gradientUnits="userSpaceOnUse" x1="17.3218" y1="74.6035" x2="97.5898" y2="74.6035" gradientTransform="matrix(1.0036 -0.0225 0.0224 0.9997 -10.9893 -8.1216)">
			<stop  offset="0" style="stop-color:#0095DB"/>
			<stop  offset="0.9944" style="stop-color:#011B84"/>
		</linearGradient>
		<path fill="url(#SVGID_7_)" d="M88.16,56.365c-0.839,0.02-1.635-0.167-2.344-0.506c-0.671,4.593-4.586,8.168-9.399,8.277
			c-0.561,0.012-1.109-0.025-1.646-0.104c-1.962,5.245-6.974,9.036-12.934,9.169c-2.52,0.057-4.897-0.55-6.972-1.654
			c-2.481,2.464-5.878,4.021-9.658,4.105c-5.98,0.135-11.173-3.453-13.354-8.635c-5.358-1.041-10.415-6.15-11.745-11.418
			c-0.389,0.186-7.293,0.715-12.12-1.409c-0.674,0.491,0.687,2.204,1.754,3.001c2.083,1.554,8.161,0.129,7.776,0.137
			c-0.003,0.001-0.007,0.001-0.01,0.001c1.776,5.401,6.25,9.222,11.739,10.288c2.401,5.702,8.115,9.678,14.697,9.53
			c4.158-0.094,7.897-1.794,10.627-4.505c2.282,1.217,4.899,1.891,7.672,1.828c6.559-0.146,12.073-4.314,14.231-10.087
			c0.591,0.087,1.195,0.13,1.812,0.116c4.326-0.098,7.991-2.74,9.593-6.459c0.015-0.088,0.031-0.174,0.045-0.264
			c0.018,0.009,0.035,0.017,0.054,0.025c0.189-0.472,0.347-0.957,0.468-1.457C88.351,56.352,88.257,56.363,88.16,56.365z"/>
	</g>
	<linearGradient id="SVGID_8_" gradientUnits="userSpaceOnUse" x1="51.4062" y1="48.6143" x2="69.4199" y2="48.6143">
		<stop  offset="0.0056" style="stop-color:#0085EB;stop-opacity:0.5"/>
		<stop  offset="0.2454" style="stop-color:#038BEC;stop-opacity:0.274"/>
		<stop  offset="1" style="stop-color:#16CCFF;stop-opacity:0"/>
	</linearGradient>
	<path fill="url(#SVGID_8_)" d="M52.29,61.271c1.317,0.26,2.64,0.501,3.959,0.752c4.366,0.832,8.412-0.035,12.211-2.27
		c0.444-0.262,0.634-0.549,0.641-1.072c0.095-7.672,0.211-15.343,0.319-23.015c0.003-0.219-0.017-0.438-0.031-0.773
		c-2.662,1.927-5.288,3.658-8.662,3.654c-3.246-0.005-6.218-0.963-9.168-2.495c-0.016,0.477-0.033,0.805-0.035,1.134
		c-0.011,1.737-0.018,3.474-0.026,5.211c-0.03,5.935-0.061,11.87-0.09,17.805C51.402,61.086,51.403,61.098,52.29,61.271z"/>
</g>
</svg>
